<svg width="405" height="800" viewBox="0 0 405 800" fill="none" xmlns="http://www.w3.org/2000/svg">
<path d="M12.9032 426.08H100.596V787.097C100.596 794.224 106.372 800 113.499 800H262.186C269.314 800 275.089 794.224 275.089 787.097V427.781H375.899C382.454 427.781 387.969 422.862 388.717 416.351L404.028 283.443C404.449 279.786 403.29 276.124 400.844 273.381C398.395 270.635 394.89 269.063 391.213 269.063H275.094V185.75C275.094 160.635 288.617 147.899 315.29 147.899C319.092 147.899 391.213 147.899 391.213 147.899C398.341 147.899 404.116 142.121 404.116 134.996V12.9987C404.116 5.87097 398.341 0.0954839 391.213 0.0954839H286.581C285.843 0.0593548 284.204 0 281.788 0C263.634 0 200.529 3.56387 150.681 49.4219C95.4503 100.24 103.128 161.086 104.963 171.636V269.061H12.9032C5.77548 269.061 0 274.836 0 281.964V413.174C0 420.302 5.77548 426.08 12.9032 426.08Z" fill="#CCC6B5"/>
</svg>
