<svg width="800" height="800" viewBox="0 0 800 800" fill="none" xmlns="http://www.w3.org/2000/svg">
<path d="M741.048 58.7437C662.999 -19.3052 535.131 -19.3052 457.083 58.7437L303.751 212.074C356.337 197.128 413.353 201.003 463.172 224.252L542.879 144.542C573.877 113.544 624.249 113.544 655.247 144.542C686.246 175.54 686.246 225.912 655.247 256.91L555.057 357.101L489.186 422.972C458.188 453.97 407.816 453.97 376.816 422.972L291.018 508.77C310.945 528.699 334.194 543.643 358.549 553.053C424.422 579.069 500.81 569.106 558.378 523.714C563.914 519.287 570.003 514.306 574.984 508.768L678.496 405.257L741.046 342.707C819.65 264.66 819.65 137.346 741.048 58.7437Z" fill="#CCC6B5"/>
<path d="M333.09 579.069L256.701 655.458C225.703 686.458 175.331 686.458 144.333 655.458C113.335 624.46 113.335 574.089 144.333 543.089L310.395 377.03C341.393 346.032 391.765 346.032 422.765 377.03L508.563 291.231C488.636 271.304 465.387 256.359 441.031 246.948C371.839 219.272 290.469 232.003 232.348 284.035C229.58 286.25 226.812 289.017 224.598 291.231L58.5367 457.291C-19.5122 535.34 -19.5122 663.207 58.5367 741.258C136.586 819.307 264.453 819.307 342.502 741.258L492.512 589.587C416.12 607.298 398.407 605.086 333.09 579.069Z" fill="#CCC6B5"/>
</svg>
