<svg width="800" height="800" viewBox="0 0 800 800" fill="none" xmlns="http://www.w3.org/2000/svg">
<path d="M762.667 263.189V634.666C762.667 651.64 755.925 667.919 743.922 679.921C731.92 691.924 715.641 698.666 698.667 698.666H101.334C84.3603 698.666 68.0816 691.924 56.0793 679.921C44.077 667.919 37.3341 651.64 37.3341 634.666V263.189L303.425 488.789C330.404 511.665 364.628 524.221 400.001 524.221C435.373 524.221 469.597 511.665 496.577 488.789L762.667 263.189ZM698.667 101.333C706.466 101.342 714.199 102.758 721.494 105.514C731.982 109.509 741.226 116.206 748.289 124.928C752.116 129.618 755.261 134.825 757.633 140.394C760.406 146.965 762.113 154.09 762.539 161.578L762.667 165.333V186.666L441.537 460.586C430.485 470.014 416.554 475.401 402.035 475.862C387.516 476.323 373.272 471.832 361.643 463.125L358.465 460.565L37.3341 186.666V165.333C37.3081 153.487 40.5813 141.867 46.7872 131.777C52.993 121.686 61.8862 113.523 72.4701 108.202C81.4189 103.679 91.307 101.325 101.334 101.333H698.667Z" fill="#CCC6B5"/>
</svg>
