<svg width="629" height="800" viewBox="0 0 629 800" fill="none" xmlns="http://www.w3.org/2000/svg">
<path d="M547.227 81.98C492.16 29.1157 415.952 0 332.643 0C205.387 0 127.118 52.1643 83.8675 95.9222C30.5642 149.849 0 221.454 0 292.379C0 381.431 37.2486 449.781 99.6254 475.21C103.813 476.925 108.027 477.789 112.158 477.789C125.318 477.789 135.744 469.178 139.357 455.367C141.463 447.444 146.341 427.895 148.463 419.409C153.004 402.652 149.335 394.591 139.432 382.92C121.391 361.573 112.99 336.331 112.99 303.479C112.99 205.899 185.649 102.193 320.317 102.193C427.17 102.193 493.546 162.924 493.546 260.684C493.546 322.375 480.258 379.506 456.122 421.561C439.35 450.783 409.858 485.616 364.583 485.616C345.004 485.616 327.417 477.574 316.32 463.552C305.837 450.297 302.381 433.175 306.598 415.33C311.361 395.167 317.856 374.136 324.142 353.805C335.606 316.67 346.444 281.596 346.444 253.613C346.444 205.751 317.018 173.59 273.229 173.59C217.579 173.59 173.98 230.112 173.98 302.268C173.98 337.656 183.385 364.125 187.643 374.287C180.632 403.991 138.966 580.585 131.063 613.885C126.493 633.324 98.9645 786.862 144.529 799.105C195.723 812.859 241.484 663.324 246.142 646.428C249.917 632.685 263.124 580.721 271.218 548.779C295.932 572.583 335.725 588.677 374.444 588.677C447.436 588.677 513.08 555.83 559.285 496.194C604.096 438.35 628.776 357.728 628.776 269.19C628.773 199.974 599.048 131.736 547.227 81.98Z" fill="#CCC6B5"/>
</svg>
