<svg width="800" height="656" viewBox="0 0 800 656" fill="none" xmlns="http://www.w3.org/2000/svg">
<path d="M781.866 76.098C769.298 81.6722 756.377 86.3767 743.174 90.196C758.805 72.5186 770.722 51.7186 777.997 28.9573C779.628 23.8554 777.938 18.2709 773.744 14.9341C769.556 11.5948 763.737 11.1948 759.125 13.9277C731.086 30.5573 700.836 42.5083 669.117 49.4967C637.166 18.276 593.77 0.508301 548.908 0.508301C454.211 0.508301 377.169 77.5483 377.169 172.242C377.169 179.701 377.641 187.117 378.575 194.431C261.066 184.113 151.819 126.356 76.7998 34.3328C74.1263 31.0528 70.0076 29.2851 65.7908 29.6231C61.5715 29.9535 57.7805 32.3328 55.6489 35.9896C40.4334 62.098 32.3895 91.9586 32.3895 122.341C32.3895 163.721 47.1637 202.983 73.2618 233.662C65.3263 230.913 57.6257 227.479 50.276 223.399C46.3302 221.202 41.5147 221.236 37.5947 223.484C33.6721 225.732 31.2128 229.866 31.1095 234.384C31.0915 235.146 31.0915 235.907 31.0915 236.679C31.0915 298.446 64.3353 354.057 115.161 384.366C110.795 383.93 106.431 383.298 102.095 382.47C97.6257 381.615 93.0295 383.182 90.0153 386.591C86.996 389.997 85.9973 394.746 87.3882 399.081C106.201 457.817 154.637 501.019 213.192 514.191C164.627 544.609 109.089 560.542 50.7869 560.542C38.6218 560.542 26.3869 559.827 14.4128 558.41C8.46436 557.703 2.77662 561.215 0.750817 566.872C-1.27499 572.532 0.872107 578.841 5.93275 582.085C80.8308 630.108 167.435 655.492 256.377 655.492C431.226 655.492 540.606 573.04 601.574 503.871C677.6 417.623 721.202 303.463 721.202 190.666C721.202 185.953 721.13 181.195 720.986 176.452C750.98 153.853 776.805 126.503 797.819 95.0683C801.011 90.2941 800.666 83.9844 796.968 79.5896C793.275 75.1922 787.12 73.7702 781.866 76.098Z" fill="#CCC6B5"/>
</svg>
