<svg xmlns="http://www.w3.org/2000/svg" width="16" height="17" viewBox="0 0 16 17" fill="none">
  <g clip-path="url(#clip0_754_1352)">
    <mask id="mask0_754_1352" style="mask-type:luminance" maskUnits="userSpaceOnUse" x="0" y="0" width="16" height="17">
      <path d="M8.00066 15.1666C8.87629 15.1677 9.74351 14.9957 10.5525 14.6606C11.3615 14.3255 12.0963 13.8339 12.7147 13.2139C13.3346 12.5955 13.8263 11.8607 14.1614 11.0518C14.4965 10.2428 14.6684 9.37556 14.6673 8.49992C14.6684 7.62429 14.4965 6.75707 14.1614 5.94809C13.8263 5.13911 13.3346 4.40431 12.7147 3.78592C12.0963 3.16598 11.3615 2.67433 10.5525 2.33923C9.74351 2.00413 8.87629 1.83218 8.00066 1.83326C7.12502 1.83218 6.2578 2.00413 5.44882 2.33923C4.63984 2.67433 3.90505 3.16598 3.28666 3.78592C2.66671 4.40431 2.17506 5.13911 1.83996 5.94809C1.50486 6.75707 1.33291 7.62429 1.33399 8.49992C1.33291 9.37556 1.50486 10.2428 1.83996 11.0518C2.17506 11.8607 2.66671 12.5955 3.28666 13.2139C3.90505 13.8339 4.63984 14.3255 5.44882 14.6606C6.2578 14.9957 7.12502 15.1677 8.00066 15.1666Z" fill="white" stroke="white" stroke-width="2" stroke-linejoin="round"/>
      <path d="M5.33398 8.5L7.33398 10.5L11.334 6.5" stroke="black" stroke-width="2" stroke-linecap="round" stroke-linejoin="round"/>
    </mask>
    <g mask="url(#mask0_754_1352)">
      <path d="M0 0.5H16V16.5H0V0.5Z" fill="#009F57"/>
    </g>
  </g>
  <defs>
    <clipPath id="clip0_754_1352">
      <rect width="16" height="16" fill="white" transform="translate(0 0.5)"/>
    </clipPath>
  </defs>
</svg>