<svg width="14" height="15" viewBox="0 0 14 15" fill="none" xmlns="http://www.w3.org/2000/svg">
<path d="M7 0.5C3.13418 0.5 0 3.63418 0 7.5C0 11.3658 3.13418 14.5 7 14.5C10.8658 14.5 14 11.3658 14 7.5C14 3.63418 10.8658 0.5 7 0.5ZM10.2308 8.57692H7C6.85719 8.57692 6.72023 8.52019 6.61925 8.41921C6.51827 8.31823 6.46154 8.18127 6.46154 8.03846V3.19231C6.46154 3.0495 6.51827 2.91254 6.61925 2.81156C6.72023 2.71058 6.85719 2.65385 7 2.65385C7.14281 2.65385 7.27977 2.71058 7.38075 2.81156C7.48173 2.91254 7.53846 3.0495 7.53846 3.19231V7.5H10.2308C10.3736 7.5 10.5105 7.55673 10.6115 7.65771C10.7125 7.75869 10.7692 7.89565 10.7692 8.03846C10.7692 8.18127 10.7125 8.31823 10.6115 8.41921C10.5105 8.52019 10.3736 8.57692 10.2308 8.57692Z" fill="black"/>
</svg>
