<svg xmlns="http://www.w3.org/2000/svg" width="15" height="15" viewBox="0 0 15 15" fill="none">
  <path fill-rule="evenodd" clip-rule="evenodd" d="M14.093 3.88946C14.6056 4.82301 14.9263 5.87783 15 6.9988H11.0017C10.9832 6.21006 10.921 5.45089 10.8218 4.73833C12.0209 4.54741 13.1254 4.25727 14.093 3.88946ZM15 8.001C14.9263 9.12197 14.6056 10.1768 14.093 11.1103C13.1254 10.7425 12.0209 10.4524 10.8218 10.2615C10.921 9.54891 10.9832 8.78974 11.0017 8.001H15ZM0.906994 11.1103C0.394366 10.1768 0.073662 9.12197 0 8.001H3.99829C4.01683 8.78974 4.07897 9.54891 4.17819 10.2615C2.97905 10.4524 1.87462 10.7425 0.906994 11.1103ZM0 6.9988C0.073662 5.87783 0.394366 4.82301 0.906994 3.88946C1.87462 4.25727 2.97905 4.54741 4.17819 4.73833C4.07897 5.45089 4.01683 6.21006 3.99829 6.9988H0ZM13.5408 11.9712C12.511 13.3593 11.0147 14.381 9.28392 14.803C9.43776 14.5965 9.58358 14.362 9.71988 14.0999C10.1077 13.3528 10.4304 12.3771 10.6559 11.2476C11.7068 11.413 12.6794 11.659 13.5408 11.9712ZM5.71607 14.803C3.98527 14.381 2.48898 13.3593 1.45921 11.9712C2.32061 11.659 3.29324 11.413 4.34405 11.2476C4.56955 12.3771 4.89226 13.3528 5.28012 14.0999C5.41642 14.362 5.56223 14.5965 5.71607 14.803ZM1.45921 3.02857C2.48898 1.64051 3.98527 0.618766 5.71607 0.196838C5.56223 0.403292 5.41642 0.637808 5.28012 0.899884C4.89226 1.64703 4.56955 2.62267 4.34405 3.75216C3.29324 3.5868 2.32061 3.34075 1.45921 3.02857ZM9.28392 0.196838C11.0147 0.618766 12.511 1.64051 13.5408 3.02857C12.6794 3.34075 11.7068 3.5868 10.6559 3.75216C10.4304 2.62267 10.1077 1.64703 9.71988 0.899884C9.58358 0.637808 9.43776 0.403292 9.28392 0.196838ZM9.9995 6.9988H5.00049C5.01853 6.25516 5.07666 5.54059 5.16937 4.87012C5.91902 4.95129 6.69923 4.99439 7.5 4.99439C8.30076 4.99439 9.08097 4.95129 9.83062 4.87012C9.92333 5.54059 9.98146 6.25516 9.9995 6.9988ZM9.83062 10.1297C9.08097 10.0485 8.30076 10.0054 7.5 10.0054C6.69923 10.0054 5.91902 10.0485 5.16937 10.1297C5.07666 9.45921 5.01853 8.74464 5.00049 8.001H9.9995C9.98146 8.74464 9.92333 9.45921 9.83062 10.1297ZM5.33724 3.88144C5.53969 2.88725 5.82431 2.02686 6.16957 1.3624C6.38504 0.946986 6.62106 0.613754 6.88013 0.387255C7.07656 0.215377 7.28152 0.108643 7.5 0.108643C7.71848 0.108643 7.92343 0.215377 8.11986 0.387255C8.37893 0.613754 8.61495 0.946986 8.83042 1.3624C9.17568 2.02686 9.46031 2.88725 9.66276 3.88144C8.96623 3.9541 8.24263 3.99219 7.5 3.99219C6.75736 3.99219 6.03377 3.9541 5.33724 3.88144ZM5.33724 11.1184C6.03377 11.0457 6.75736 11.0076 7.5 11.0076C8.24263 11.0076 8.96623 11.0457 9.66276 11.1184C9.46031 12.1125 9.17568 12.9729 8.83042 13.6374C8.61495 14.0528 8.37893 14.3861 8.11986 14.6125C7.92343 14.7844 7.71848 14.8912 7.5 14.8912C7.28152 14.8912 7.07656 14.7844 6.88013 14.6125C6.62106 14.3861 6.38504 14.0528 6.16957 13.6374C5.82431 12.9729 5.53969 12.1125 5.33724 11.1184Z" fill="#FFEED9"/>
</svg>