<svg xmlns="http://www.w3.org/2000/svg" width="18" height="19" viewBox="0 0 18 19" fill="none">
  <path d="M14.8848 4.69577C14.8848 4.09755 14.3999 3.6145 13.8039 3.6145C13.2079 3.6145 12.7227 4.09755 12.7227 4.69577C12.7227 5.29179 13.2079 5.77482 13.8039 5.77482C14.3999 5.77482 14.8848 5.29179 14.8848 4.69577Z" fill="url(#paint0_linear_730_2302)"/>
  <path d="M16.3248 13.1363C16.2848 14.0139 16.138 14.4906 16.0162 14.8073C15.8525 15.2272 15.6572 15.5274 15.3406 15.8423C15.0274 16.1573 14.7272 16.3521 14.3073 16.514C13.9906 16.6376 13.5121 16.7848 12.6345 16.8266C11.6858 16.8685 11.4047 16.8774 8.99886 16.8774C6.59526 16.8774 6.3119 16.8685 5.36319 16.8266C4.48566 16.7848 4.00928 16.6376 3.69257 16.514C3.27049 16.3521 2.9725 16.1573 2.65759 15.8423C2.34045 15.5274 2.1452 15.2272 1.98374 14.8073C1.86185 14.4906 1.71287 14.0139 1.67504 13.1363C1.62881 12.1876 1.62033 11.902 1.62033 9.50107C1.62033 7.09524 1.62881 6.81191 1.67504 5.86317C1.71287 4.98564 1.86185 4.50929 1.98374 4.18992C2.1452 3.77049 2.34045 3.47203 2.65759 3.15712C2.9725 2.84268 3.27049 2.6474 3.69257 2.48374C4.00928 2.35965 4.48566 2.21464 5.36319 2.17284C6.3119 2.13101 6.59526 2.12033 8.99886 2.12033C11.4047 2.12033 11.6858 2.13101 12.6345 2.17284C13.5121 2.21464 13.9906 2.35965 14.3073 2.48374C14.7272 2.6474 15.0274 2.84268 15.3406 3.15712C15.6572 3.47203 15.8525 3.77049 16.0162 4.18992C16.138 4.50929 16.2848 4.98564 16.3248 5.86317C16.3689 6.81191 16.3796 7.09524 16.3796 9.50107C16.3796 11.902 16.3689 12.1876 16.3248 13.1363ZM17.9452 5.78936C17.9012 4.83039 17.7499 4.17524 17.5253 3.60459C17.2967 3.01258 16.9903 2.51086 16.4885 2.00915C15.9891 1.50967 15.4873 1.2032 14.8953 0.971926C14.3225 0.749524 13.6695 0.596507 12.7101 0.554709C11.7507 0.50844 11.4443 0.5 8.99886 0.5C6.55564 0.5 6.247 0.50844 5.28759 0.554709C4.33041 0.596507 3.67789 0.749524 3.10236 0.971926C2.51258 1.2032 2.01086 1.50967 1.51138 2.00915C1.00967 2.51086 0.703202 3.01258 0.47236 3.60459C0.249957 4.17524 0.0987417 4.83039 0.0524733 5.78936C0.0106748 6.74877 0 7.05565 0 9.50107C0 11.9443 0.0106748 12.2507 0.0524733 13.2101C0.0987417 14.1673 0.249957 14.822 0.47236 15.3953C0.703202 15.9851 1.00967 16.4891 1.51138 16.9885C2.01086 17.488 2.51258 17.7967 3.10236 18.0276C3.67789 18.2499 4.33041 18.4012 5.28759 18.4452C6.247 18.4893 6.55564 18.4999 8.99886 18.4999C11.4443 18.4999 11.7507 18.4893 12.7101 18.4452C13.6695 18.4012 14.3225 18.2499 14.8953 18.0276C15.4873 17.7967 15.9891 17.488 16.4885 16.9885C16.9903 16.4891 17.2967 15.9851 17.5253 15.3953C17.7499 14.822 17.9012 14.1673 17.9452 13.2101C17.9893 12.2507 17.9999 11.9443 17.9999 9.50107C17.9999 7.05565 17.9893 6.74877 17.9452 5.78936Z" fill="url(#paint1_linear_730_2302)"/>
  <path d="M8.99886 12.4988C7.34292 12.4988 5.99924 11.1573 5.99924 9.50133C5.99924 7.84272 7.34292 6.49951 8.99886 6.49951C10.6553 6.49951 12.0007 7.84272 12.0007 9.50133C12.0007 11.1573 10.6553 12.4988 8.99886 12.4988ZM8.99886 4.87695C6.44625 4.87695 4.37891 6.94872 4.37891 9.50133C4.37891 12.0517 6.44625 14.1213 8.99886 14.1213C11.5515 14.1213 13.621 12.0517 13.621 9.50133C13.621 6.94872 11.5515 4.87695 8.99886 4.87695Z" fill="url(#paint2_linear_730_2302)"/>
  <defs>
    <linearGradient id="paint0_linear_730_2302" x1="0.162447" y1="18.3135" x2="16.5008" y2="1.97519" gradientUnits="userSpaceOnUse">
      <stop stop-color="#FFD521"/>
      <stop offset="0.05" stop-color="#FFD521"/>
      <stop offset="0.501119" stop-color="#F50000"/>
      <stop offset="0.95" stop-color="#B900B4"/>
      <stop offset="0.950079" stop-color="#B900B4"/>
      <stop offset="1" stop-color="#B900B4"/>
    </linearGradient>
    <linearGradient id="paint1_linear_730_2302" x1="0.162357" y1="18.3362" x2="16.5141" y2="1.98447" gradientUnits="userSpaceOnUse">
      <stop stop-color="#FFD521"/>
      <stop offset="0.05" stop-color="#FFD521"/>
      <stop offset="0.501119" stop-color="#F50000"/>
      <stop offset="0.95" stop-color="#B900B4"/>
      <stop offset="0.950079" stop-color="#B900B4"/>
      <stop offset="1" stop-color="#B900B4"/>
    </linearGradient>
    <linearGradient id="paint2_linear_730_2302" x1="0.166607" y1="18.3369" x2="16.5145" y2="1.98911" gradientUnits="userSpaceOnUse">
      <stop stop-color="#FFD521"/>
      <stop offset="0.05" stop-color="#FFD521"/>
      <stop offset="0.501119" stop-color="#F50000"/>
      <stop offset="0.95" stop-color="#B900B4"/>
      <stop offset="0.950079" stop-color="#B900B4"/>
      <stop offset="1" stop-color="#B900B4"/>
    </linearGradient>
  </defs>
</svg>