<svg xmlns="http://www.w3.org/2000/svg" width="20" height="21" viewBox="0 0 20 21" fill="none">
  <path d="M16.8471 17.2794H13.9655V12.8111C13.9655 11.7456 13.9463 10.374 12.4668 10.374C10.9659 10.374 10.7363 11.5349 10.7363 12.7336V17.2791H7.85467V8.09055H10.621V9.34626H10.6597C10.9366 8.87757 11.3366 8.49201 11.8173 8.23063C12.2979 7.96925 12.8412 7.84185 13.3892 7.86199C16.3098 7.86199 16.8483 9.76414 16.8483 12.2387L16.8471 17.2794ZM4.60327 6.83454C4.27253 6.8346 3.9492 6.73755 3.67417 6.55566C3.39914 6.37377 3.18477 6.11521 3.05815 5.81268C2.93153 5.51015 2.89835 5.17724 2.96281 4.85604C3.02728 4.53485 3.18649 4.23979 3.42032 4.00819C3.65414 3.77658 3.95208 3.61883 4.27644 3.55489C4.60081 3.49094 4.93704 3.52367 5.24263 3.64894C5.54821 3.77421 5.80941 3.98638 5.99321 4.25864C6.177 4.53089 6.27514 4.851 6.2752 5.17848C6.27524 5.39592 6.23202 5.61123 6.14802 5.81213C6.06402 6.01303 5.94089 6.19559 5.78563 6.34937C5.63038 6.50314 5.44604 6.62514 5.24318 6.70838C5.04031 6.79163 4.82287 6.8345 4.60327 6.83454ZM6.04407 17.2794H3.15947V8.09055H6.04407V17.2794ZM18.2837 0.873382H1.71147C1.33533 0.869179 0.972867 1.01301 0.703772 1.27327C0.434676 1.53353 0.280958 1.88892 0.276367 2.26136V18.7384C0.280801 19.111 0.434429 19.4667 0.703515 19.7272C0.972601 19.9877 1.33514 20.1318 1.71147 20.1279H18.2837C18.6608 20.1326 19.0243 19.9889 19.2945 19.7283C19.5646 19.4678 19.7193 19.1118 19.7245 18.7384V2.26017C19.7191 1.88699 19.5643 1.5312 19.2942 1.27094C19.024 1.01069 18.6606 0.867271 18.2837 0.872193" fill="black"/>
</svg>