<svg xmlns="http://www.w3.org/2000/svg" width="15" height="13" viewBox="0 0 15 13" fill="none">
  <path d="M13.125 0.5H1.875C1.37788 0.500541 0.901278 0.701851 0.549762 1.05976C0.198247 1.41766 0.000531772 1.90293 0 2.40909V10.5909C0.000531772 11.0971 0.198247 11.5823 0.549762 11.9402C0.901278 12.2981 1.37788 12.4995 1.875 12.5H13.125C13.6221 12.4995 14.0987 12.2981 14.4502 11.9402C14.8018 11.5823 14.9995 11.0971 15 10.5909V2.40909C14.9995 1.90293 14.8018 1.41766 14.4502 1.05976C14.0987 0.701851 13.6221 0.500541 13.125 0.5ZM12.6502 3.65784L7.82879 7.47602C7.73478 7.55044 7.61909 7.59084 7.5 7.59084C7.38091 7.59084 7.26522 7.55044 7.17121 7.47602L2.34978 3.65784C2.29313 3.61428 2.24555 3.5597 2.2098 3.49726C2.17405 3.43482 2.15085 3.36576 2.14153 3.29411C2.13222 3.22246 2.13699 3.14964 2.15556 3.07988C2.17413 3.01012 2.20613 2.94481 2.2497 2.88776C2.29327 2.8307 2.34754 2.78302 2.40937 2.74751C2.47119 2.71199 2.53933 2.68934 2.60983 2.68087C2.68032 2.67239 2.75177 2.67827 2.82002 2.69816C2.88826 2.71804 2.95195 2.75154 3.00737 2.7967L7.5 6.35443L11.9926 2.7967C12.105 2.71033 12.2462 2.67244 12.3857 2.69124C12.5253 2.71005 12.652 2.78402 12.7384 2.89718C12.8248 3.01033 12.864 3.15357 12.8475 3.29592C12.831 3.43826 12.7601 3.56828 12.6502 3.65784Z" fill="#FFEED9"/>
</svg>