<svg width="14" height="15" viewBox="0 0 14 15" fill="none" xmlns="http://www.w3.org/2000/svg">
<path d="M11.218 14.4999C10.6078 14.4999 9.7508 14.2793 8.46741 13.5624C6.90678 12.6874 5.69966 11.8795 4.14747 10.3317C2.65091 8.83637 1.92264 7.86824 0.903366 6.01384C-0.248119 3.92006 -0.0518294 2.82255 0.16759 2.35348C0.428894 1.79285 0.814598 1.45753 1.31314 1.12472C1.5963 0.939226 1.89597 0.780219 2.20832 0.649712C2.23958 0.636274 2.26865 0.623462 2.29459 0.611899C2.44931 0.542211 2.68373 0.436897 2.98067 0.549398C3.17883 0.623774 3.35574 0.775963 3.63267 1.0494C4.2006 1.60941 4.9767 2.85661 5.26301 3.46912C5.45523 3.88194 5.58245 4.15444 5.58276 4.46007C5.58276 4.81789 5.40272 5.09383 5.18424 5.39164C5.1433 5.44758 5.10266 5.50102 5.06328 5.5529C4.82542 5.8654 4.77322 5.95571 4.8076 6.11697C4.8773 6.44103 5.3971 7.40573 6.25133 8.25793C7.10557 9.11013 8.04264 9.59701 8.36802 9.66638C8.53618 9.70232 8.62838 9.64794 8.95095 9.40169C8.99721 9.36638 9.04472 9.32982 9.09441 9.29325C9.42761 9.04544 9.69079 8.87012 10.0402 8.87012H10.0421C10.3462 8.87012 10.6066 9.002 11.0379 9.2195C11.6006 9.50326 12.8855 10.2692 13.4491 10.8376C13.7232 11.1139 13.876 11.2902 13.9507 11.488C14.0632 11.7858 13.9573 12.0192 13.8882 12.1755C13.8766 12.2014 13.8638 12.2299 13.8504 12.2614C13.7188 12.5732 13.5588 12.8721 13.3725 13.1546C13.0402 13.6514 12.7036 14.0361 12.1416 14.2977C11.853 14.4342 11.5372 14.5033 11.218 14.4999Z" fill="#FFEED9"/>
</svg>
