<svg xmlns="http://www.w3.org/2000/svg" width="24" height="24" viewBox="0 0 24 24" fill="none">
  <g clip-path="url(#clip0_754_1287)">
    <path d="M22.9262 23.6924C22.6038 23.3389 22.2238 22.6855 21.8706 21.9881C23.1815 20.7519 23.9991 19.0074 23.9991 17.0738C23.9991 15.0389 23.0951 13.2143 21.6615 11.9685C20.4485 10.9138 18.8575 10.2756 17.1167 10.2756C13.7657 10.2756 10.9752 12.6391 10.3591 15.7707C10.2766 16.193 10.2324 16.6286 10.2324 17.0738C10.2324 18.2107 10.5145 19.2845 11.0174 20.2264C11.2439 20.6544 11.5145 21.0538 11.8254 21.4225C13.0882 22.9186 14.9902 23.8701 17.1167 23.8701C17.6023 23.8701 18.0744 23.8204 18.5312 23.7268C20.0474 24.107 21.8131 24.0058 22.6403 23.9255C22.9377 23.8968 23.1143 23.8701 23.1143 23.8701C23.0548 23.8261 22.9915 23.765 22.9262 23.6924Z" fill="#F8E5C7"/>
    <path d="M8.48493 15.0561C9.40808 11.1908 12.9222 8.31526 17.1176 8.31526C18.7816 8.31526 20.34 8.76809 21.6701 9.55529C21.077 4.18247 16.467 0 10.8686 0C4.86525 0 0 4.80535 0 10.7323C0 13.7836 1.28972 16.5388 3.36249 18.4934C2.68693 19.8175 1.95762 21.048 1.3972 21.4645C1.3972 21.4645 5.38153 22.053 8.63271 21.2372C8.83423 21.1875 9.03191 21.1321 9.22383 21.0709C8.60008 19.8729 8.24886 18.5145 8.24886 17.0738C8.24886 16.3783 8.33139 15.7038 8.48493 15.0561Z" fill="#ECBE70"/>
  </g>
  <defs>
    <clipPath id="clip0_754_1287">
      <rect width="24" height="24" fill="white"/>
    </clipPath>
  </defs>
</svg>