<svg xmlns="http://www.w3.org/2000/svg" width="59" height="49" viewBox="0 0 59 49" fill="none">
  <path d="M32.6215 49L31.4647 47.1767C31.4647 47.1767 44.1894 38.7442 48.3538 28.7163C49.0479 27.1209 48.1224 25.7535 46.5029 25.9814C45.5775 25.9814 44.6521 25.9814 43.7266 25.7535C37.2486 24.8419 32.6215 19.1442 32.6215 12.7628C32.6215 5.46977 38.4054 0 45.5775 0C52.981 0 58.9963 5.69767 58.9963 12.7628C58.9963 12.7628 59.9217 32.3628 32.6215 49ZM1.38815 49L0 47.1767C0 47.1767 12.4933 38.7442 17.1205 28.7163C17.8146 27.1209 16.4264 25.7535 15.0383 25.9814C14.3442 25.9814 13.4188 25.9814 12.4933 25.7535C6.01531 24.8419 1.38815 19.1442 1.38815 12.7628C1.38815 5.46977 7.1721 0 14.3442 0C21.7477 0 27.763 5.69767 27.763 12.7628C27.763 12.7628 28.6884 32.3628 1.38815 49Z" fill="white"/>
</svg>