<svg xmlns="http://www.w3.org/2000/svg" width="29" height="30" viewBox="0 0 29 30" fill="none">
  <path d="M28.5555 26.5891L21.9814 20.0149C23.5641 17.9079 24.4186 15.3431 24.4157 12.7078C24.4157 5.97648 18.9392 0.5 12.2078 0.5C5.47648 0.5 0 5.97648 0 12.7078C0 19.4392 5.47648 24.9157 12.2078 24.9157C14.8431 24.9186 17.4079 24.0641 19.5149 22.4814L26.0891 29.0555C26.4219 29.353 26.8559 29.5118 27.3021 29.4993C27.7483 29.4868 28.1728 29.304 28.4884 28.9884C28.804 28.6728 28.9868 28.2483 28.9993 27.8021C29.0118 27.3559 28.853 26.9219 28.5555 26.5891ZM3.48795 12.7078C3.48795 10.9832 3.99937 9.29731 4.95752 7.86333C5.91567 6.42935 7.27753 5.3117 8.87088 4.65172C10.4642 3.99173 12.2175 3.81905 13.909 4.1555C15.6005 4.49196 17.1542 5.32245 18.3737 6.54195C19.5932 7.76145 20.4237 9.31518 20.7602 11.0067C21.0966 12.6982 20.924 14.4514 20.264 16.0448C19.604 17.6381 18.4863 19 17.0523 19.9582C15.6184 20.9163 13.9325 21.4277 12.2078 21.4277C9.89603 21.4249 7.67971 20.5054 6.04501 18.8707C4.41032 17.236 3.49073 15.0196 3.48795 12.7078Z" fill="#697077"/>
</svg>