<svg xmlns="http://www.w3.org/2000/svg" width="16" height="17" viewBox="0 0 16 17" fill="none">
  <path d="M13.2595 3.4075C12.3328 2.81052 11.6645 1.85492 11.4556 0.741541C11.4108 0.501041 11.3858 0.253292 11.3858 0H8.42864L8.42389 11.7128C8.37428 13.0245 7.28186 14.0773 5.94309 14.0773C5.52675 14.0773 5.135 13.9746 4.78984 13.795C3.99858 13.3835 3.45711 12.564 3.45711 11.6207C3.45711 10.266 4.5724 9.16372 5.94266 9.16372C6.19851 9.16372 6.444 9.20551 6.67612 9.27715V6.2935C6.4358 6.26109 6.1916 6.24105 5.94266 6.24105C2.94154 6.24105 0.5 8.65415 0.5 11.6207C0.5 13.4407 1.41984 15.0513 2.82376 16.0252C3.70778 16.6388 4.78337 17 5.94309 17C8.94421 17 11.3858 14.5869 11.3858 11.6207V5.68116C12.5455 6.50372 13.9667 6.98856 15.5 6.98856V4.06589C14.6742 4.06589 13.905 3.82326 13.2595 3.4075Z" fill="black"/>
</svg>