<svg xmlns="http://www.w3.org/2000/svg" width="20" height="15" viewBox="0 0 20 15" fill="none">
  <path d="M19.582 2.67172C19.352 1.80856 18.6744 1.12885 17.8139 0.898169C16.2542 0.47893 10 0.47893 10 0.47893C10 0.47893 3.74583 0.47893 2.18613 0.898169C1.32564 1.12885 0.647905 1.80856 0.417924 2.67172C0 4.23614 0 7.50021 0 7.50021C0 7.50021 0 10.7642 0.417924 12.3288C0.647905 13.1919 1.32564 13.8716 2.18613 14.1023C3.74583 14.5215 10 14.5215 10 14.5215C10 14.5215 16.2542 14.5215 17.8139 14.1023C18.6744 13.8716 19.352 13.1919 19.582 12.3288C20 10.7642 20 7.50021 20 7.50021C20 7.50021 20 4.23614 19.582 2.67172Z" fill="#ED1D24"/>
  <path d="M7.9541 10.4634L13.1814 7.5L7.9541 4.53635V10.4634Z" fill="white"/>
</svg>