<svg xmlns="http://www.w3.org/2000/svg" width="30" height="11" viewBox="0 0 30 11" fill="none">
  <path fill-rule="evenodd" clip-rule="evenodd" d="M15.6125 3.44811V2.91419H17.2959V10.4216H16.3328C15.9364 10.4216 15.6146 10.1175 15.6125 9.74136C15.6123 9.74155 15.6128 9.74118 15.6125 9.74136C14.9345 10.2124 14.0956 10.4926 13.1903 10.4926C10.9231 10.4926 9.08475 8.74728 9.08475 6.59474C9.08475 4.44219 10.9231 2.69689 13.1903 2.69689C14.0956 2.69689 14.9345 2.97706 15.6125 3.44811C15.6128 3.44829 15.6123 3.44792 15.6125 3.44811ZM8.64856 0.5V0.743404C8.64856 1.19737 8.58471 1.56801 8.27418 2.00284L8.23662 2.04356C8.16882 2.11657 8.0097 2.28809 7.93399 2.38118L2.52995 8.82511H8.64856V9.73736C8.64856 10.1153 8.32577 10.4216 7.92766 10.4216H0V9.99146C0 9.46468 0.137774 9.22972 0.31192 8.98481L6.07275 2.21059H0.240166V0.5H8.64856ZM19.3376 10.4216C19.0065 10.4216 18.7373 10.166 18.7373 9.85187V0.500038H20.5392V10.4216H19.3376ZM25.8668 2.64988C28.1498 2.64988 30 4.40832 30 6.574C30 8.74156 28.1498 10.5 25.8668 10.5C23.5837 10.5 21.7335 8.74156 21.7335 6.574C21.7335 4.40832 23.5837 2.64988 25.8668 2.64988ZM13.1903 8.88803C14.5246 8.88803 15.6058 7.86149 15.6058 6.59474C15.6058 5.32986 14.5246 4.30332 13.1903 4.30332C11.8561 4.30332 10.7748 5.32986 10.7748 6.59474C10.7748 7.86149 11.8561 8.88803 13.1903 8.88803ZM25.8668 8.88418C27.2089 8.88418 28.2981 7.85014 28.2981 6.574C28.2981 5.29974 27.2089 4.26588 25.8668 4.26588C24.5226 4.26588 23.4355 5.29974 23.4355 6.574C23.4355 7.85014 24.5226 8.88418 25.8668 8.88418Z" fill="#0068FF"/>
</svg>